<svg width="327" height="205" viewBox="0 0 327 205" fill="none" xmlns="http://www.w3.org/2000/svg">
<path d="M30.7217 192.922C30.7217 192.922 58.3645 152.244 88.8635 150.433C119.362 148.621 142.876 173.445 158.864 172.736C174.853 172.026 190.623 114.021 229.821 116.311C269.019 118.602 294.937 194.19 294.937 194.19L30.7217 192.922Z" fill="#EFF0F2"/>
<path d="M308.173 191.546C307.409 191.038 306.468 190.792 305.517 190.792H31.6621C26.6822 190.962 19.8889 192.191 19.6905 193.274C19.4653 194.504 27.0166 194.966 32.7312 195.027C45.2471 195.162 57.7628 195.297 70.2787 195.432C71.4264 195.444 72.6279 195.46 73.6115 195.588C76.336 195.942 75.4525 196.905 72.9522 197.329C70.4519 197.752 67.1055 197.839 64.1101 198.071C61.115 198.303 58.0546 198.826 58.2508 199.509C58.5173 200.439 64.0448 200.767 68.366 200.83C86.375 201.093 104.482 201.044 122.454 200.685C130.03 200.533 138.638 200.395 144.241 201.502C145.859 201.821 147.115 202.23 148.964 202.484C163.273 204.454 187.103 203.153 202.533 203.302C218.814 203.46 235.433 203.609 251.103 202.646C255.474 202.377 260.226 201.92 261.727 200.998C263.323 200.017 260.562 198.988 258.445 198.055C256.327 197.121 255.074 195.847 258.719 195.165C260.654 194.803 263.404 194.737 265.967 194.72C278.768 194.635 292.234 195.334 304.002 194.248C309.141 193.774 309.835 192.651 308.173 191.546Z" fill="#DFE1E5"/>
<path d="M124.945 145.688C124.945 126.197 128.455 112.558 135.477 104.77C142.498 96.9828 153.192 93.0889 167.562 93.0889C174.465 93.0889 180.133 93.9404 184.566 95.6417C188.998 97.3448 192.614 99.5588 195.413 102.287C198.212 105.015 200.416 107.882 202.026 110.89C203.635 113.898 204.93 117.407 205.909 121.417C207.822 129.065 208.778 137.039 208.778 145.338C208.778 163.943 205.629 177.56 199.332 186.186C193.034 194.814 182.187 199.126 166.792 199.126C158.16 199.126 151.187 197.75 145.869 194.999C140.55 192.249 136.188 188.215 132.783 182.899C130.31 179.122 128.385 173.958 127.01 167.406C125.633 160.855 124.945 153.616 124.945 145.688ZM153.216 145.758C153.216 158.815 154.37 167.733 156.68 172.512C158.989 177.292 162.336 179.681 166.722 179.681C169.614 179.681 172.121 178.667 174.244 176.639C176.366 174.61 177.929 171.404 178.933 167.021C179.935 162.638 180.437 155.807 180.437 146.527C180.437 132.912 179.283 123.76 176.973 119.074C174.664 114.388 171.2 112.044 166.582 112.044C161.869 112.044 158.464 114.435 156.365 119.214C154.266 123.994 153.216 132.842 153.216 145.758Z" fill="#ADB1BD"/>
<path d="M163.477 112.446C162.509 112.181 161.478 112.044 160.38 112.044C155.668 112.044 152.263 114.434 150.164 119.213C148.065 123.994 147.015 132.842 147.015 145.758C147.015 158.814 148.169 167.733 150.479 172.512C152.788 177.292 156.135 179.681 160.52 179.681C161.621 179.681 162.665 179.533 163.653 179.24C160.742 178.349 158.418 176.107 156.681 172.512C154.372 167.733 153.217 158.814 153.217 145.758C153.217 132.842 154.267 123.994 156.366 119.213C157.971 115.558 160.343 113.306 163.477 112.446ZM205.91 121.417C204.93 117.407 203.635 113.898 202.026 110.89C200.416 107.882 198.212 105.015 195.413 102.287C192.614 99.5588 188.998 97.3448 184.567 95.6417C180.134 93.9402 174.466 93.0889 167.562 93.0889C166.517 93.0889 165.494 93.1121 164.488 93.1531C169.994 93.3767 174.621 94.2048 178.365 95.6417C182.796 97.3448 186.412 99.5586 189.211 102.287C192.01 105.015 194.214 107.882 195.824 110.89C197.433 113.898 198.728 117.407 199.708 121.417C201.62 129.065 202.577 137.039 202.577 145.338C202.577 163.944 199.428 177.56 193.13 186.186C187.264 194.222 177.449 198.513 163.69 199.063C164.699 199.105 165.733 199.126 166.792 199.126C182.187 199.126 193.034 194.814 199.332 186.186C205.63 177.56 208.779 163.944 208.779 145.338C208.779 137.039 207.822 129.065 205.91 121.417Z" fill="#636B81"/>
<path d="M172.126 73.1047C172.054 78.2399 171.302 83.0148 169.679 87.8911C169.375 88.806 168.987 89.687 168.628 90.5804C168.779 91.5514 168.936 92.5242 169.089 93.4957C166.214 93.4786 163.339 93.4927 160.465 93.4934C162.314 92.3981 164.162 91.3147 166.022 90.2295C166.137 89.513 166.254 88.576 166.322 87.8843C166.782 83.2059 166.577 78.3107 166.481 73.7919C166.446 72.1561 166.351 72.359 166.977 70.7094C169.543 63.9495 172.37 56.508 173.833 49.2178C177.016 49.2185 180.161 49.2821 183.329 49.3002C184.681 60.8444 180.12 65.6559 172.126 73.1047Z" fill="#F9CBCB"/>
<path d="M179.032 66.0247C177.065 68.6459 174.475 70.8126 172.132 73.107C172.107 78.5803 171.754 83.8667 170.13 89.1231C168.678 89.0505 167.289 88.9406 165.796 88.894C166.498 82.7303 164.843 77.0494 166.367 70.8073C168.103 63.6973 172.394 56.6309 173.816 49.2216C177.039 49.2151 180.146 49.2839 183.332 49.3013C183.932 55.8406 183.019 60.7111 179.032 66.0247Z" fill="#8B91A1"/>
<path d="M179.065 66.0156C179.063 66.0206 179.063 66.0292 179.061 66.0337C177.33 68.973 174.628 70.8624 172.125 73.1047C172.113 78.5827 171.751 83.8644 170.129 89.1233C169.703 89.0989 169.277 89.0742 168.852 89.0507C170.667 83.7202 170.977 78.3606 170.888 72.7644C179.144 65.3942 174.303 64.9584 177.068 56.8501C177.741 59.9038 178.411 62.9576 179.065 66.0156Z" fill="#636B81"/>
<path d="M166.021 90.2344C163.857 91.0625 160.909 90.947 160.124 93.4933C163.112 93.4933 166.101 93.4777 169.089 93.4958C169.158 92.3761 169.107 91.3269 168.765 90.2525C167.839 90.3831 166.947 90.3624 166.021 90.2344Z" fill="#25274F"/>
<path d="M190.881 93.4314C191.224 94.2864 191.568 95.0881 191.913 95.9219C189.479 96.4165 187.045 96.9121 184.611 97.4092C186.106 96.2161 187.628 95.0686 189.097 93.8357C188.566 92.5929 187.963 90.9385 187.382 89.7971C185.051 85.225 182.434 81.1088 179.759 76.807C179.123 75.7838 178.688 74.7974 178.519 73.5624C177.444 65.7219 177.435 57.7248 176.166 49.8938C178.308 49.5731 180.447 49.2676 182.588 48.9487C188.236 58.5977 187.205 63.9603 184.644 74.3638C187.412 79.1188 188.964 83.8391 190.126 89.2871C190.365 90.4096 190.678 92.1997 190.881 93.4314Z" fill="#F9CBCB"/>
<path d="M178.525 73.5878C178.708 74.8275 179.093 75.7055 179.791 76.883C182.725 81.8365 185.162 87.3009 187.749 92.5072C188.949 92.28 190.138 92.029 191.334 91.7907C189.923 85.5895 187.904 79.8523 184.645 74.3715C187.201 63.9605 188.237 58.6067 182.592 48.9557C182.589 48.9509 182.592 48.9469 182.587 48.9479C180.156 49.3081 177.72 49.6621 175.287 50.0175C175.321 50.2076 175.354 50.3969 175.388 50.5872C175.389 50.5912 175.387 50.5991 175.388 50.6031C176.652 58.2402 177.394 65.9224 178.525 73.5878Z" fill="#8B91A1"/>
<path d="M176.838 51.052C177.331 52.0732 176.89 54.2055 177.724 55.5292C179.885 58.9561 182.439 55.832 184.599 57.9507C188.274 61.5553 184.662 68.6333 183.571 72.9623C183.538 73.0931 183.178 74.8287 182.678 74.7087C184.983 75.8721 183.999 74.3619 185.817 78.103C186.637 79.7905 190.667 88.3512 190.698 91.5688C191.126 92.1232 191.001 91.6734 191.337 91.7995C189.921 85.5884 187.905 79.8565 184.645 74.3722C187.197 63.9584 188.244 58.6125 182.586 48.9526C180.129 49.4475 177.346 49.087 175.013 49.6638C174.738 49.7313 176.516 50.3872 176.838 51.052Z" fill="#636B81"/>
<path d="M188.745 93.0534C186.553 94.3577 184.233 94.9022 183.577 97.6204C186.402 97.0411 189.227 96.4686 192.052 95.8926C191.803 94.7196 191.344 93.6891 190.762 92.6455C190.107 93.1391 189.54 93.2364 188.745 93.0534Z" fill="#25274F"/>
<path d="M160.423 26.5516C160.449 26.6005 160.703 27.1122 160.73 27.2476C161.302 26.9085 161.816 26.4883 162.354 26.0943C162.185 25.9486 161.904 25.5508 161.909 25.3547C161.923 24.7078 162.334 23.8603 161.846 23.3909C161.358 22.9216 161.144 23.9606 161.136 24.2858C160.405 23.49 160.379 23.0022 159.698 22.0241C157.889 19.4239 160.141 26.0257 160.423 26.5516Z" fill="#F9CBCB"/>
<path d="M160.352 26.9589C161.54 29.7915 162.712 33.4187 165.582 34.7878C168.847 36.3447 171.595 34.7782 174.893 34.8695C175.39 32.3754 175.959 29.9639 176.484 27.5016C172.994 28.2034 170.162 29.9392 167.09 31.6501C165.289 29.7852 163.852 27.7126 162.44 25.5449C161.74 26.0158 161.028 26.43 160.352 26.9589Z" fill="#C9CCD3"/>
<path d="M161.037 26.5122C162.524 29.1039 163.194 32.895 165.931 34.6429C168.125 36.0437 172.32 34.4861 174.863 34.8365C174.913 34.7538 174.9 34.8191 174.872 34.8713C172.152 34.7311 167.993 36.9036 165.554 35.5363C162.498 33.8224 161.844 29.7608 160.333 26.9559C160.574 26.7421 160.814 26.61 161.037 26.5122Z" fill="#ADB1BD"/>
<path d="M171.209 37.2889C172.09 41.2642 172.97 45.2381 173.842 49.2164C177 49.2323 180.174 49.3074 183.322 49.2931C184.136 43.6789 184.001 37.2447 182.515 32.0201C181.845 29.6666 178.851 28.5337 177.922 28.0525C176.993 27.5713 177.689 27.9434 177.686 27.9434C176.629 27.8922 175.894 28.0187 174.96 28.0397C173.721 31.1282 172.453 34.2031 171.209 37.2889Z" fill="#F9CBCB"/>
<path d="M171.35 37.7383C172.012 41.1578 172.826 44.5201 173.545 47.7919C173.777 48.8466 174.352 48.9996 175.203 49.2389C177.001 49.894 178.783 49.6077 180.638 49.2966C182.263 48.9565 183.433 48.3394 183.597 46.377C183.978 41.7933 184.031 36.3128 182.466 31.9827C181.662 29.7586 179.931 29.0581 178.204 28.1665C177.66 27.8851 177.653 27.7941 177.067 27.9562C176.256 28.1803 176.082 27.176 174.886 28.238C174.152 28.8902 171.702 35.4017 171.371 36.526C171.04 37.6503 171.265 37.2987 171.35 37.7383Z" fill="white"/>
<path d="M171.611 49.8155C174.967 49.8566 178.322 49.8871 181.677 49.9204C181.679 49.4086 181.679 48.8967 181.679 48.3849C178.325 48.3537 174.97 48.3156 171.615 48.2866C171.615 48.7963 171.613 49.306 171.611 49.8155Z" fill="#8B91A1"/>
<path d="M175.557 55.0753C175.405 55.862 175.071 55.8353 174.582 56.0758C173.971 56.3753 173.367 56.1859 172.741 56.1829C172.714 56.1829 172.692 56.1741 172.663 56.1658C172.163 56.0191 171.678 56.0342 171.201 55.6548C171.203 52.0563 171.231 44.0708 171.209 41.4333C171.188 38.7957 171.167 38.4529 171.208 37.4927C171.385 33.2542 170.948 29.7316 174.782 27.9055C174.967 27.8172 174.908 27.9261 175.059 27.8883C173.132 37.6172 177.154 46.7772 175.557 55.0753ZM186.132 56.7436C184.165 57.0478 182.104 57.039 180.218 56.6359C178.632 56.2971 177.822 55.1179 177.878 53.5754C178.193 44.9433 176.464 36.5287 177.562 27.8662C178.303 28.4401 176.616 27.1444 177.905 28.0857C179.193 29.027 181.408 28.8087 182.61 32.2368C184.869 38.683 185.487 48.3038 186.783 55.6077C186.871 56.1038 186.604 56.6707 186.132 56.7436Z" fill="#C9CCD3"/>
<path d="M184.59 49.7272C183.065 49.9765 181.617 49.9506 180.097 49.6834C180.097 49.4482 180.097 49.2127 180.097 48.9775C181.606 49.1941 183.076 49.1734 184.591 49.0176C184.591 49.2543 184.59 49.4908 184.59 49.7272Z" fill="#ADB1BD"/>
<path d="M185.963 50.478C186.061 50.2022 186.249 49.6912 186.424 49.3938C185.822 49.1328 185.213 48.884 184.611 48.6357C184.529 48.9728 184.512 49.483 184.217 49.7144C183.733 50.0945 182.942 50.2992 182.67 50.8576C182.397 51.416 183.546 51.061 183.753 50.9592C183.609 52.028 183.237 52.4314 182.74 53.4904C182.243 54.5494 184.347 55.0334 185.963 50.478Z" fill="#F9CBCB"/>
<path d="M184.331 49.0647C185.092 49.3916 185.758 49.734 186.581 50.0503C187.65 46.892 190.542 43.2509 190.23 39.8175C189.836 35.4776 184.276 32.7211 181.361 30.1357C180.506 31.6014 179.781 33.0438 178.979 34.5021C180.893 36.725 183.055 38.5911 185.586 40.084C185.167 43.0777 184.75 46.0704 184.331 49.0647Z" fill="#C9CCD3"/>
<path d="M179.129 34.4839C180.087 35.311 184.812 39.5856 186.079 39.6072C185.7 42.8505 185.315 46.0931 184.939 49.3366C184.736 49.2459 184.535 49.1549 184.333 49.0644C184.749 46.0706 185.168 43.0774 185.586 40.0839C183.144 38.5084 181.076 36.6349 179.129 34.4839Z" fill="#ADB1BD"/>
<path d="M176.568 26.0068C178.268 25.7 178.855 25.029 179.389 23.2173C179.922 21.4056 177.946 19.7305 176.547 19.6805C174.605 19.611 174.517 19.1981 173.338 18.2275C172.904 19.4353 172.202 20.0665 172.929 21.5883C173.558 22.9072 175.437 24.7825 176.568 26.0068Z" fill="#636B81"/>
<path d="M174.839 24.7202C174.862 25.0492 174.866 25.1435 174.893 25.5405C174.921 25.9378 174.999 27.2037 175.024 27.5135C175.049 27.8234 175.032 27.8118 175.05 27.8818C175.435 29.3389 177.065 29.1153 177.607 27.8975C177.491 27.4132 177.319 26.7071 177.215 26.2718C177.11 25.8364 177 25.3787 176.927 25.0769C176.855 24.7752 176.871 24.843 176.816 24.6123C176.761 24.3817 176.701 24.1374 176.645 23.8989C176.043 24.1722 175.442 24.4555 174.839 24.7202Z" fill="#F9CBCB"/>
<path d="M174.892 25.5017C174.937 26.1972 174.983 26.8932 175.029 27.5892C175.797 27.4092 176.479 27.1493 177.003 26.5405C177.084 26.4462 177.137 26.3487 177.21 26.2425C177.129 25.9133 176.992 25.3433 176.927 25.0716C176.862 24.7999 176.869 24.8273 176.817 24.6123C176.178 24.9188 175.533 25.2039 174.892 25.5017Z" fill="#F0B4B4"/>
<path d="M173.972 21.1888C173.514 20.9475 173.148 21.2964 173.071 21.6934C172.796 23.122 173.14 25.9383 174.281 26.4886C175.95 27.2935 176.978 25.5299 177.543 24.7996C178.108 24.0691 178.195 23.6176 177.823 23.1656C177.452 22.7139 176.906 23.4026 176.744 23.6947C176.432 22.0461 175.314 21.8951 173.972 21.1888Z" fill="#F9CBCB"/>
<path d="M130.097 19.5063C130.071 21.5518 130.065 23.6014 130.081 25.6471C130.942 25.6184 132.477 25.5674 133.168 25.5445C133.859 25.5213 133.275 25.5412 133.892 25.5206C134.509 25.4999 134.384 25.5047 135.383 25.4711C136.381 25.4376 133.853 25.5228 136.48 25.4346C139.106 25.3464 143.701 25.1886 148.848 24.9985C153.995 24.8082 163.537 24.4058 169.503 24.1916C169.701 23.2465 169.703 22.3345 169.51 21.3866C163.544 21.0897 154.009 20.6899 148.858 20.4441C143.707 20.1983 139.078 19.9679 136.447 19.8338C133.815 19.6997 136.346 19.8278 135.347 19.7768C134.348 19.7259 134.473 19.7317 133.857 19.7002C133.242 19.6687 133.816 19.6979 133.133 19.6629C132.45 19.6276 130.947 19.5505 130.097 19.5063Z" fill="#ADB1BD"/>
<path d="M133.895 24.7281C134.511 24.7077 134.387 24.7125 135.385 24.6787C136.384 24.6452 133.856 24.7306 136.482 24.6419C139.109 24.5534 143.704 24.3943 148.851 24.2038C153.997 24.0132 163.539 23.6073 169.506 23.3931C169.7 23.6522 169.7 23.9182 169.504 24.1912C163.537 24.4052 153.995 24.8073 148.849 24.9981C143.702 25.1889 139.107 25.3455 136.48 25.4342C133.853 25.5229 136.382 25.437 135.383 25.4707C134.385 25.5045 134.509 25.4997 133.892 25.5201C133.275 25.5408 133.859 25.5212 133.168 25.5441C132.477 25.567 130.943 25.618 130.082 25.6467C130.061 25.3833 130.061 25.1191 130.084 24.8541C130.945 24.8257 132.479 24.7747 133.17 24.7515C133.861 24.7291 133.278 24.7485 133.895 24.7281Z" fill="#8B91A1"/>
<path d="M170.244 20.6987C170.589 20.701 170.843 20.9102 170.848 21.3184C170.859 22.1883 170.857 23.3093 170.841 24.1788C170.834 24.5869 170.579 24.7923 170.234 24.7901C169.889 24.7875 169.635 24.5786 169.63 24.1704C169.619 23.3008 169.621 22.1797 169.637 21.3103C169.644 20.9022 169.899 20.6965 170.244 20.6987Z" fill="#636B81"/>
<path d="M129.372 22.5708C129.371 23.2661 129.36 25.5565 130.384 25.5643C131.407 25.5719 131.41 23.2835 131.411 22.5882C131.413 21.893 131.423 19.6023 130.4 19.5947C129.376 19.5872 129.374 21.8756 129.372 22.5708Z" fill="white"/>
<path d="M129.088 22.5682C129.09 21.6703 129.139 19.3025 130.4 19.312C131.661 19.3216 131.696 21.6932 131.695 22.5911C131.693 23.4888 131.644 25.8569 130.383 25.8473C129.121 25.8375 129.086 23.4661 129.088 22.5682ZM129.656 22.5735C129.655 23.0693 129.623 25.263 130.384 25.2685C131.146 25.2741 131.125 23.0807 131.126 22.5856C131.127 22.0903 131.16 19.8959 130.399 19.8908C129.637 19.8855 129.657 22.0776 129.656 22.5735Z" fill="#636B81"/>
<path d="M133.261 25.5418C133.454 25.5352 133.647 25.5289 133.841 25.5226C134.059 23.5627 134.047 21.6549 133.806 19.6977C133.612 19.6881 133.418 19.6775 133.224 19.668C133.476 21.6423 133.489 23.5639 133.261 25.5418ZM135.287 25.4745C135.481 25.4679 135.674 25.4613 135.867 25.4553C136.072 23.5541 136.061 21.701 135.833 19.8023C135.639 19.7925 135.445 19.7819 135.251 19.7718C135.489 21.6882 135.501 23.5556 135.287 25.4745Z" fill="white"/>
<path d="M148.491 20.2554C148.263 21.8818 148.258 23.5524 148.478 25.1818C153.063 24.9966 163.628 24.5252 166.803 24.4009C169.977 24.2769 167.08 24.39 168.262 24.3442C169.443 24.298 168.731 24.3258 169.658 24.2895C169.603 23.2932 169.605 22.2864 169.666 21.2909C168.739 21.242 169.45 21.2791 168.269 21.2168C167.088 21.1546 169.984 21.3066 166.811 21.1402C163.638 20.9738 153.074 20.4873 148.491 20.2554Z" fill="#ADB1BD"/>
<path d="M169.468 23.3421C169.47 22.6546 169.471 21.9675 169.473 21.2803C169.526 21.2833 169.578 21.2856 169.63 21.2886C169.628 22.2894 169.625 23.2901 169.623 24.2912C162.528 24.5687 155.436 24.9047 148.341 25.1878C148.342 24.8709 148.342 24.5541 148.343 24.2372C155.386 23.9566 162.425 23.6168 169.468 23.3421Z" fill="#8B91A1"/>
<path d="M148.584 19.7593C148.827 19.7605 149.056 19.8795 149.057 20.1835C149.063 21.9 149.058 23.7286 149.043 25.4448C149.041 25.7485 148.811 25.865 148.568 25.8635C148.325 25.862 148.095 25.7427 148.094 25.439C148.088 23.7228 148.093 21.8947 148.108 20.1785C148.11 19.8747 148.341 19.758 148.584 19.7593ZM167.594 21.1815C167.592 22.2446 167.589 23.3076 167.586 24.3707C167.85 24.3606 168.114 24.35 168.378 24.3399C168.381 23.3011 168.383 22.262 168.385 21.2231C168.122 21.2093 167.858 21.1952 167.594 21.1815Z" fill="white"/>
<path d="M252.983 102.948C253.105 102.262 253.822 101.956 254.441 101.855C255.22 101.728 256.02 101.808 256.789 101.967C258.405 102.301 259.97 103.031 261.647 103.002C262.495 102.987 263.339 102.774 264.022 102.258C262.066 100.548 260.313 98.6029 258.602 96.6522C257.961 95.9225 257.321 95.1876 256.673 94.4601C254.163 93.7258 251.693 95.3472 249.159 95.0336C248.485 94.9502 247.844 94.721 247.299 94.3109C247.208 94.2418 247.324 94.1067 247.415 94.1755C248.459 94.9613 249.823 94.9852 251.065 94.805C252.294 94.6265 253.482 94.2259 254.723 94.1191C255.307 94.0686 255.894 94.0956 256.464 94.228C254.707 92.2678 252.877 90.3696 250.77 88.784C248.217 86.8646 245.235 85.3758 242.023 85.0496C241.62 85.0103 241.217 84.9886 240.814 84.9871C240.7 84.9833 240.687 84.8073 240.8 84.8061C243.926 84.8331 246.908 85.9984 249.502 87.6821C249.945 87.9682 250.372 88.2737 250.792 88.5876C250.785 88.5687 250.782 88.5478 250.792 88.5243C251.424 87.0741 250.478 85.6143 249.597 84.5152C249.114 83.9142 248.602 83.3286 248.224 82.6535C247.91 82.0932 247.65 81.4443 247.804 80.7944C247.831 80.6833 248.007 80.7145 247.98 80.8262C247.8 81.5857 248.218 82.3548 248.626 82.9676C249.07 83.6347 249.616 84.2243 250.094 84.8656C250.881 85.9195 251.522 87.2962 250.954 88.6002C250.936 88.6423 250.899 88.6499 250.865 88.6438C253.227 90.422 255.264 92.5965 257.219 94.8088C258.303 96.0349 259.374 97.2772 260.479 98.4867C261.78 97.0382 262.478 95.0324 262.41 93.0921C262.374 92.0321 262.063 91.0643 261.603 90.1152C261.104 89.085 260.501 88.0842 260.251 86.9541C260.005 85.8389 260.158 84.5714 261.021 83.7501C261.103 83.672 261.24 83.7869 261.156 83.8658C260.287 84.6932 260.179 85.972 260.464 87.0804C260.756 88.217 261.385 89.2208 261.876 90.2758C262.301 91.1888 262.565 92.1329 262.59 93.1432C262.614 94.082 262.461 95.0213 262.163 95.9111C261.83 96.9063 261.307 97.8406 260.602 98.6203C261.95 100.09 263.352 101.507 264.9 102.772C265.972 103.65 267.123 104.452 268.34 105.128C267.862 102.285 270.04 99.9029 270.629 97.2542C270.802 96.4793 270.836 95.6779 270.631 94.9058C270.601 94.7959 270.769 94.7362 270.799 94.8476C271.554 97.6858 269.393 100.168 268.682 102.765C268.466 103.549 268.38 104.361 268.524 105.166C268.528 105.19 268.52 105.207 268.51 105.222C269.436 105.724 270.398 106.153 271.397 106.474C271.364 106.502 271.334 106.532 271.303 106.557C271.289 106.574 271.27 106.59 271.253 106.604C269.548 106.047 267.934 105.192 266.445 104.163C265.647 103.611 264.89 103.011 264.16 102.38C263.019 103.266 261.492 103.297 260.132 103.025C258.553 102.71 257.043 102.018 255.415 101.972C254.664 101.951 253.327 102.038 253.159 102.979C253.138 103.092 252.963 103.06 252.983 102.948Z" fill="white"/>
<path d="M42.917 115.421C44.0635 115.971 45.3341 116.228 46.6037 116.183C47.836 116.141 49.015 115.788 50.1075 115.229C51.3042 114.614 52.3816 113.805 53.4766 113.03C54.6645 112.193 55.897 111.415 57.1762 110.724C57.7544 110.414 58.3368 110.09 58.9466 109.845C59.4543 109.64 60.0318 109.505 60.5455 109.767C60.5513 109.77 60.5559 109.767 60.5617 109.77C60.6078 109.86 60.6585 109.947 60.7024 110.04C60.8522 110.345 60.9952 110.656 61.1251 110.973C61.1639 110.944 61.2043 110.921 61.2467 110.896C61.0063 110.326 60.7339 109.766 60.43 109.226C60.4305 109.222 60.4313 109.218 60.4295 109.216C60.3647 108.957 60.3539 108.68 60.368 108.412C60.3801 108.161 60.4091 107.875 60.5523 107.661C60.768 107.343 61.1069 107.104 61.4187 106.885C61.7321 106.669 62.0529 106.458 62.3763 106.256C64.6529 104.83 67.1327 103.706 69.2197 101.994C70.9339 100.585 72.404 98.7596 72.8753 96.5481C72.8945 96.4591 72.7525 96.4364 72.7328 96.5297C72.4567 97.8174 71.8262 98.9946 71.002 100.017C69.3882 102.018 67.1552 103.34 64.9467 104.593C63.7225 105.286 62.4895 105.968 61.3332 106.771C60.9082 107.067 60.4104 107.413 60.2868 107.945C60.2152 108.241 60.2003 108.57 60.2323 108.885C59.3393 107.389 58.2177 106.046 57.1073 104.709C57.0571 104.647 57.0029 104.584 56.9527 104.522C56.9527 104.522 56.9527 104.522 56.9535 104.517C56.7303 103.264 56.9227 101.978 57.3623 100.79C58.2568 98.3661 60.1208 96.5705 62.0078 94.8869C62.524 94.4263 63.0441 93.9663 63.5538 93.4969C64.0322 93.0575 64.5142 92.6083 64.9285 92.1024C65.6299 91.2397 66.1386 90.1245 65.8934 88.9944C65.8738 88.9059 65.7305 88.9198 65.7519 89.0108C66.0614 90.4323 65.1739 91.7053 64.2213 92.6663C62.3268 94.5738 60.0626 96.14 58.4931 98.3576C57.2881 100.06 56.4846 102.209 56.7787 104.313C55.7404 103.058 54.7162 101.778 53.915 100.353C53.4782 99.5729 53.1284 98.7564 52.8371 97.9177C52.8358 97.9114 52.8388 97.9058 52.8358 97.897C52.8308 97.8902 52.828 97.8816 52.8209 97.8723C52.5591 97.1115 52.3427 96.3346 52.1536 95.5514C51.8396 94.2478 51.5869 92.9307 51.2878 91.6229C51.514 90.2299 52.0908 88.914 52.7387 87.67C53.8998 85.436 55.4791 83.3644 56.1169 80.8932C56.6826 78.6935 56.3134 75.9786 54.3366 74.5856C54.2607 74.5316 54.173 74.6438 54.2489 74.6975C55.3487 75.4712 55.9613 76.7303 56.1558 78.0411C56.5305 80.5771 55.3003 82.9482 54.0575 85.0685C52.9127 87.0191 51.6545 89.0327 51.2068 91.2803C51.1675 91.1132 51.1307 90.9445 51.0898 90.7751C50.6712 89.1071 50.0886 87.5011 49.3179 85.9639C47.7383 82.8144 45.5556 80.0233 43.3879 77.2665C43.3332 77.1934 43.2187 77.2789 43.2734 77.352C43.5395 77.6887 43.8053 78.0253 44.0691 78.3638C46.146 81.0276 48.1878 83.7778 49.5897 86.8668C48.9371 86.223 48.0213 85.8862 47.1805 85.5686C46.1265 85.1711 44.9185 84.6634 44.4928 83.5255C44.4603 83.439 44.3281 83.4914 44.3606 83.5779C44.7579 84.6445 45.8416 85.2056 46.8418 85.5933C47.8826 85.9972 49.0778 86.3541 49.7698 87.2893C49.7731 87.2939 49.7776 87.2906 49.7812 87.2951C49.7812 87.2951 49.7812 87.2951 49.7829 87.2977C50.4533 88.8633 50.8979 90.4941 51.2643 92.1545C51.6141 93.7452 51.9117 95.3467 52.3654 96.9136C52.4091 97.0629 52.457 97.2129 52.5029 97.3606C51.7188 96.3117 50.4144 95.7225 49.1411 95.4853C47.6685 95.2111 46.1573 95.4294 44.6898 95.63C43.2323 95.8297 41.7842 95.9512 40.3164 95.8594C37.4895 95.6794 34.7138 94.8508 32.2543 93.4475C32.1754 93.3993 32.1191 93.5342 32.1986 93.5783C33.5388 94.3441 34.9728 94.9396 36.46 95.3527C37.7939 95.7233 39.1673 95.9466 40.5512 96.016C41.9799 96.0838 43.3846 95.9519 44.7977 95.7601C46.2718 95.5587 47.7875 95.351 49.2639 95.6545C50.627 95.9353 52.0363 96.6457 52.6943 97.9318C53.1256 99.1584 53.6839 100.326 54.3999 101.422C55.3863 102.923 56.5736 104.277 57.7118 105.661C57.8089 105.782 57.9043 105.9 57.9993 106.018C57.0995 105.612 56.0834 105.475 55.1006 105.517C54.0438 105.56 53.0108 105.835 51.9945 106.109C50.9415 106.396 49.8886 106.669 48.8104 106.846C46.719 107.191 44.5881 107.258 42.481 107.047C42.3882 107.038 42.3675 107.182 42.4586 107.189C43.6149 107.303 44.7808 107.339 45.9387 107.288C46.9792 107.242 48.0173 107.131 49.0405 106.952C50.0909 106.767 51.1153 106.495 52.1428 106.216C53.1717 105.94 54.2201 105.671 55.2915 105.653C56.2851 105.635 57.307 105.803 58.194 106.268C58.1981 106.269 58.1986 106.265 58.2003 106.267C59.0376 107.316 59.8245 108.402 60.4613 109.579C59.9846 109.4 59.4616 109.498 58.9922 109.677C58.3032 109.934 57.648 110.31 57.0026 110.659C55.7555 111.341 54.5528 112.096 53.3919 112.917C52.2736 113.709 51.1723 114.543 49.9413 115.155C48.8225 115.712 47.6206 116.039 46.3707 116.048C45.1984 116.056 44.0303 115.797 42.9735 115.291C42.8903 115.251 42.8346 115.382 42.917 115.421Z" fill="white"/>
<path d="M69.5605 176.137H19.6855V153.63L69.5605 94.3716H93.4226V154.906H105.79V176.137H93.4226V194.546H69.5605V176.137ZM69.5605 154.906V123.909L43.2072 154.906H69.5605Z" fill="#ADB1BD"/>
<path d="M105.79 154.906H100.657V176.137H105.79V154.906Z" fill="#636B81"/>
<path d="M93.4225 94.3716H88.29V154.906H93.4225V94.3716Z" fill="#636B81"/>
<path d="M43.2067 154.906L69.5601 124.639V118.602L38.0742 154.906H43.2067Z" fill="#636B81"/>
<path d="M93.4225 176.137H88.29V194.546H93.4225V176.137Z" fill="#636B81"/>
<path d="M271.657 176.137H221.782V153.63L271.657 94.3716H295.519V154.906H307.887V176.137H295.519V194.546H271.657V176.137ZM271.657 154.906V123.909L245.304 154.906H271.657Z" fill="#ADB1BD"/>
<path d="M307.888 154.906H302.755V176.137H307.888V154.906Z" fill="#636B81"/>
<path d="M295.52 94.3716H290.387V154.906H295.52V94.3716Z" fill="#636B81"/>
<path d="M245.304 154.906L271.658 124.639V118.602L240.172 154.906H245.304Z" fill="#636B81"/>
<path d="M295.52 176.137H290.387V194.546H295.52V176.137Z" fill="#636B81"/>
<path d="M286.444 38.617C285.633 38.617 284.861 38.7846 284.161 39.0866C284.17 38.9311 284.175 38.7745 284.175 38.617C284.175 34.1546 280.556 30.5369 276.091 30.5369C274.467 30.5369 272.954 31.0164 271.687 31.841C271.478 25.9185 266.609 21.1814 260.633 21.1814C254.524 21.1814 249.571 26.1318 249.571 32.2382C249.571 32.3598 249.574 32.4805 249.578 32.601C248.147 31.3179 246.256 30.5372 244.182 30.5372C239.718 30.5372 236.098 34.1548 236.098 38.6172C236.098 38.9396 236.118 39.2575 236.155 39.5698C235.244 38.9679 234.152 38.6172 232.978 38.6172C229.793 38.6172 227.211 41.198 227.211 44.3819C227.211 47.5657 229.793 50.1465 232.978 50.1465C234.51 50.1465 235.901 49.5498 236.934 48.5765C238.255 51.2426 241.004 53.0762 244.182 53.0762C246.208 53.0762 248.059 52.3316 249.477 51.1014C250.762 51.9605 252.306 52.4619 253.968 52.4619C256.178 52.4619 258.181 51.5748 259.64 50.1377C261.099 51.5748 263.102 52.4619 265.313 52.4619C267.222 52.4619 268.976 51.7999 270.359 50.6935C271.823 52.1649 273.851 53.0762 276.091 53.0762C279.072 53.0762 281.676 51.4631 283.077 49.0628C284.025 49.7447 285.187 50.1467 286.444 50.1467C289.629 50.1467 292.211 47.5659 292.211 44.3821C292.211 41.1978 289.629 38.617 286.444 38.617ZM101.959 31.3802C101.095 31.3802 100.272 31.5589 99.5252 31.881C99.5347 31.7154 99.54 31.5485 99.54 31.3802C99.54 26.6226 95.6814 22.7655 90.9214 22.7655C89.1893 22.7655 87.5767 23.2767 86.2257 24.1557C86.0027 17.8413 80.812 12.7905 74.4401 12.7905C67.9266 12.7905 62.6463 18.0684 62.6463 24.5789C62.6463 24.7085 62.6491 24.8373 62.6534 24.9659C61.1275 23.5978 59.1115 22.7655 56.9007 22.7655C52.1407 22.7655 48.282 26.6223 48.282 31.3802C48.282 31.724 48.3027 32.0628 48.342 32.3961C47.3708 31.7542 46.2069 31.3802 44.9555 31.3802C41.5596 31.3802 38.8066 34.1319 38.8066 37.5262C38.8066 40.9205 41.5596 43.6722 44.9555 43.6722C46.588 43.6722 48.0719 43.036 49.173 41.9984C50.5813 44.8409 53.5124 46.7958 56.9007 46.7958C59.0603 46.7958 61.0342 46.0017 62.5464 44.6902C63.9159 45.6062 65.5622 46.1406 67.3337 46.1406C69.6905 46.1406 71.8258 45.1948 73.3819 43.6627C74.9377 45.1948 77.0734 46.1406 79.4302 46.1406C81.4657 46.1406 83.336 45.4348 84.8108 44.2553C86.3717 45.8243 88.5333 46.7956 90.9219 46.7956C94.1001 46.7956 96.8763 45.0756 98.3703 42.5164C99.3804 43.2434 100.62 43.672 101.96 43.672C105.355 43.672 108.109 40.9202 108.109 37.5259C108.108 34.1319 105.355 31.3802 101.959 31.3802Z" fill="#EFF0F2"/>
</svg>
